<svg   viewBox="0 0 1440 402" fill="none" xmlns="http://www.w3.org/2000/svg">
<path fill-rule="evenodd" clip-rule="evenodd" d="M0 0L30 59.5556C60 119.111 120 238.222 180 260.556C240 282.889 300 208.444 360 171.222C420 134 480 134 540 163.778C600 193.556 660 253.111 720 260.556C780 268 840 223.333 900 186.111C960 148.889 1020 119.111 1080 156.333C1140 193.556 1200 297.778 1260 297.778C1320 297.778 1380 193.556 1410 141.444L1440 89.3333V402H1410C1380 402 1320 402 1260 402C1200 402 1140 402 1080 402C1020 402 960 402 900 402C840 402 780 402 720 402C660 402 600 402 540 402C480 402 420 402 360 402C300 402 240 402 180 402C120 402 60 402 30 402H0V0Z" fill="#0099FF"/>
</svg>
