<svg width="447" height="125" viewBox="0 0 447 125" fill="none" xmlns="http://www.w3.org/2000/svg">
<g clip-path="url(#clip0_24_17)">
<path d="M59.1974 -0.566667C51.8535 0.883333 51.7123 1.48751 51.7123 58.6417C51.571 123.288 51.4298 119.904 53.6895 122.321C57.079 126.308 78.8284 125.583 88.9969 121.113C93.5162 119.179 99.3067 113.863 102.272 109.029C107.357 100.571 108.204 29.4 103.261 16.2292C98.883 4.87084 90.1267 -0.0833335 73.1792 -0.6875C67.2475 -0.929167 61.0334 -0.808334 59.1974 -0.566667ZM84.9012 15.7458C86.8785 17.8 88.9969 20.9417 89.703 22.6333C90.268 24.4458 90.6917 41.3625 90.6917 60.3333C90.6917 97.55 89.9855 101.538 83.2065 107.821C78.2634 112.292 71.202 112.292 67.8125 107.821C65.4115 104.8 65.2703 100.813 65.5528 60.575C65.694 11.0333 65.5528 12 76.0038 12C80.0994 12 82.0766 12.725 84.9012 15.7458Z" fill="black"/>
<path d="M151.562 0.520803C143.794 2.6958 143.653 3.05831 143.512 63.8375C143.37 113.379 143.653 119.904 145.63 122.562C147.89 125.462 148.172 125.583 164.555 125.1C173.735 124.979 182.067 124.375 182.915 123.892C184.892 122.925 185.174 113.983 183.338 113.017C182.632 112.533 177.689 111.929 172.322 111.687C166.814 111.325 161.871 110.237 160.742 109.271C158.341 107.217 157.635 91.5083 159.753 87.2791C161.165 84.2583 168.368 81.8416 174.3 82.325C178.113 82.6875 178.254 82.5666 178.678 76.2833L179.101 70H173.452C167.097 70 161.165 68.0666 160.035 65.65C159.612 64.6833 159.188 53.5666 159.188 40.7583C158.906 13.3291 158.906 13.3291 173.311 12.4833C178.113 12.1208 182.773 11.6375 183.338 11.275C185.174 10.3083 184.892 1.36664 183.056 0.39997C180.514 -0.929197 156.363 -0.808363 151.562 0.520803Z" fill="black"/>
<path d="M235.17 -0.204127C223.73 0.641706 221.329 2.33337 219.917 10.4292C219.493 13.5709 219.069 40.0334 219.069 69.1542C219.211 120.508 219.352 122.2 222.035 123.892C224.154 125.221 228.391 125.583 241.525 125.1C250.705 124.858 258.331 124.496 258.614 124.254C259.744 123.046 260.45 114.95 259.602 113.742C259.179 113.017 253.953 112.171 248.163 111.688C240.678 111.204 237.006 110.358 235.876 109.029C233.757 106.613 233.475 90.1792 235.452 86.9167C237.147 84.2584 243.078 82.325 248.869 82.6875C254.094 82.9292 255.224 81.6 255.224 75.3167V70.2417L247.315 69.7584C235.17 68.9125 235.17 68.7917 234.463 43.175C234.181 30.9709 234.322 19.8542 234.746 18.4042C235.735 14.6584 239.971 13.0875 249.999 12.4834C254.801 12.2417 259.037 11.3959 259.744 10.55C261.156 8.61671 261.156 3.42087 259.744 1.60837C258.472 -0.204127 246.892 -0.929127 235.17 -0.204127Z" fill="black"/>
<path d="M296.887 1.36668C296.04 3.54168 295.051 114.104 295.898 119.783C296.463 124.254 296.604 124.375 302.677 124.375H308.891L309.174 118.575C309.315 115.433 309.315 111.808 309.174 110.479C309.033 109.15 309.315 103.471 309.739 97.9125C310.445 89.2125 311.151 87.2792 314.117 84.7417C317.083 82.2042 318.495 81.8417 324.003 82.4458C334.172 83.4125 334.595 84.2583 335.584 105.283L336.431 123.771L341.939 124.133C344.905 124.375 348.012 124.013 348.718 123.408C350.131 122.2 351.26 15.1417 349.989 4.38751C349.566 -0.204155 349.566 -0.204155 343.634 0.158345L337.844 0.520845L336.996 8.37501C336.431 12.725 336.008 26.8625 335.866 39.7917C335.584 66.2542 335.019 68.0667 326.545 69.5167C321.461 70.2417 313.976 68.4292 311.999 65.8917C311.434 65.1667 310.727 50.1833 310.304 32.5417L309.598 0.520845L303.525 0.158345C299.57 -0.0833221 297.311 0.279178 296.887 1.36668Z" fill="black"/>
<path d="M405.916 0.762511C403.798 3.78334 398.149 30.125 395.606 48.8542C395.183 51.5125 394.053 57.7958 392.923 62.75C391.793 67.7042 390.522 74.2292 390.098 77.25C389.675 80.2708 388.121 88.6083 386.568 95.9792C385.155 103.229 383.602 112.654 383.037 116.763L382.048 124.375H387.839C393.206 124.375 393.629 124.133 394.9 119.783C395.606 117.367 396.736 113.258 397.301 110.6C397.866 108.063 399.985 104.317 402.103 102.263C405.21 99.2417 407.187 98.5167 413.825 98.0333C421.31 97.55 422.016 97.6708 425.971 101.296C429.784 104.679 431.196 108.063 433.88 120.388C434.727 124.133 435.151 124.375 441.082 124.375C446.873 124.375 447.297 124.133 447.297 120.992C447.297 119.179 446.59 115.433 445.884 112.654C445.037 109.875 443.483 101.658 442.212 94.5292C439.811 80.875 438.117 71.9333 436.987 65.7708C436.563 63.7167 435.857 58.8833 435.433 55.0167C434.868 51.15 434.162 47.525 433.88 46.9208C433.456 46.4375 432.891 43.9 432.467 41.3625C430.773 28.675 425.123 5.47501 423.146 1.97084C422.016 0.400011 420.039 -0.0833221 414.108 -0.0833221C410.012 -0.0833221 406.199 0.279178 405.916 0.762511ZM417.497 31.8167C418.344 32.6625 420.039 39.0667 421.169 45.9542C422.299 52.8417 423.852 61.7833 424.7 65.7708C426.818 76.525 426.536 78.3375 422.016 82.0833C418.486 85.225 417.497 85.4667 412.554 84.5C405.634 83.1708 403.515 80.6333 403.515 73.8667C403.515 67.1 408.741 36.4083 410.577 32.7833C412.13 29.7625 415.096 29.2792 417.497 31.8167Z" fill="black"/>
<path d="M0.728364 7.40831C-0.260244 17.075 0.587134 120.387 1.71697 121.837C2.14066 122.562 5.38894 123.167 8.77846 123.167H14.8513L14.4276 74.4708C14.1452 47.7666 14.004 20.3375 13.8627 13.45L13.7215 1.12498H7.50739H1.43451L0.728364 7.40831Z" fill="black"/>
</g>
<defs>
<clipPath id="clip0_24_17">
<rect width="447" height="125" fill="white"/>
</clipPath>
</defs>
</svg>
